<?xml version="1.0" ?><svg id="Layer_1" style="enable-background:new 0 0 128 128;" version="1.1" viewBox="0 0 128 128" xml:space="preserve" xmlns="http://www.w3.org/2000/svg" xmlns:xlink="http://www.w3.org/1999/xlink"><style type="text/css">
	.st0{fill:#0A0A0A;}
</style><path class="st0" d="M69,1C58.5,1,50,9.5,50,20v66c0,7.7,6.3,14,14,14s14-6.3,14-14V29c0-0.6-0.4-1-1-1s-1,0.4-1,1V86  c0,6.6-5.4,12-12,12c-6.6,0-12-5.4-12-12V20c0-9.4,7.6-17,17-17s17,7.6,17,17v83c0,12.1-9.9,22-22,22s-22-9.9-22-22V29  c0-0.6-0.4-1-1-1s-1,0.4-1,1v74c0,13.2,10.8,24,24,24s24-10.8,24-24V20C88,9.5,79.5,1,69,1z"/></svg>